<svg xmlns="http://www.w3.org/2000/svg" viewBox="0 0 200 200" fill="none">
  <rect width="200" height="200" rx="40" fill="url(#gradient)"/>
  <defs>
    <linearGradient id="gradient" x1="0" y1="0" x2="200" y2="200" gradientUnits="userSpaceOnUse">
      <stop offset="0%" stop-color="#0ea5e9"/>
      <stop offset="100%" stop-color="#0369a1"/>
    </linearGradient>
  </defs>
  <path d="M60 50h80c8.837 0 16 7.163 16 16v84c0 8.837-7.163 16-16 16H60c-8.837 0-16-7.163-16-16V66c0-8.837 7.163-16 16-16z" fill="white" opacity="0.95"/>
  <rect x="70" y="70" width="60" height="6" rx="3" fill="#0ea5e9"/>
  <rect x="70" y="86" width="50" height="4" rx="2" fill="#0ea5e9" opacity="0.6"/>
  <rect x="70" y="96" width="50" height="4" rx="2" fill="#0ea5e9" opacity="0.6"/>
  <rect x="70" y="106" width="40" height="4" rx="2" fill="#0ea5e9" opacity="0.6"/>
  <rect x="70" y="120" width="60" height="2" rx="1" fill="#cbd5e1"/>
  <rect x="70" y="130" width="50" height="4" rx="2" fill="#0ea5e9" opacity="0.8"/>
  <rect x="70" y="140" width="45" height="4" rx="2" fill="#0ea5e9" opacity="0.8"/>
</svg>
